<svg xmlns="http://www.w3.org/2000/svg" version="1.1" xmlns:xlink="http://www.w3.org/1999/xlink" xmlns:svgjs="http://svgjs.dev/svgjs" width="1500" height="507" viewBox="0 0 1500 507"><g transform="matrix(1,0,0,1,-0.9090909090909918,-0.4885325380985819)"><svg viewBox="0 0 396 134" data-background-color="#ffffff" preserveAspectRatio="xMidYMid meet" height="507" width="1500" xmlns="http://www.w3.org/2000/svg" xmlns:xlink="http://www.w3.org/1999/xlink"><g id="tight-bounds" transform="matrix(1,0,0,1,0.2400000000000091,0.12911905346194885)"><svg viewBox="0 0 395.52 133.7417618930761" height="133.7417618930761" width="395.52"><g><svg viewBox="0 0 397.4975999999999 134.41047070254146" height="133.7417618930761" width="395.52"><g><svg viewBox="0 0 397.4975999999999 134.41047070254146" height="134.41047070254146" width="397.4975999999999"><g id="textblocktransform"><svg viewBox="0 0 397.4975999999999 134.41047070254146" height="134.41047070254146" width="397.4975999999999" id="textblock"><g><rect width="397.4975999999999" height="7.509137216134738" x="0" y="92.11321069136842" fill="#45d979" opacity="1" stroke-width="0" stroke="transparent" fill-opacity="1" class="rect-qz-0" data-fill-palette-color="primary" rx="1%" id="qz-0" data-palette-color="#45d979"></rect></g><g transform="matrix(1,0,0,1,0.9887999999999693,0)"><svg viewBox="0 0 395.52 83.26736842105264" height="83.26736842105264" width="395.52"><g transform="matrix(1,0,0,1,0,0)"><svg width="395.52" viewBox="1.6 -34.8 207.08 43.599999999999994" height="83.26736842105264" data-palette-color="#45d979"><path d="M14.5 0.6L14.5 0.6Q11.75 0.6 9.4-0.28 7.05-1.15 5.33-2.83 3.6-4.5 2.6-6.95 1.6-9.4 1.6-12.5L1.6-12.5Q1.6-15.55 2.63-17.98 3.65-20.4 5.33-22.1 7-23.8 9.15-24.7 11.3-25.6 13.6-25.6L13.6-25.6Q16.35-25.6 18.4-24.65 20.45-23.7 21.8-22.05 23.15-20.4 23.83-18.2 24.5-16 24.5-13.5L24.5-13.5Q24.5-12.35 24.38-11.35 24.25-10.35 24.15-9.9L24.15-9.9 9.9-9.9Q10.5-7.65 12.05-6.78 13.6-5.9 15.7-5.9L15.7-5.9Q17-5.9 18.23-6.28 19.45-6.65 20.8-7.4L20.8-7.4 23.6-2.3Q21.55-0.85 19.07-0.13 16.6 0.6 14.5 0.6ZM9.8-15.5L9.8-15.5 17.2-15.5Q17.2-16.95 16.48-18.03 15.75-19.1 13.8-19.1L13.8-19.1Q12.35-19.1 11.28-18.25 10.2-17.4 9.8-15.5ZM38.3 0.6L38.3 0.6Q35.95 0.6 34.07-0.3 32.2-1.2 30.87-2.9 29.55-4.6 28.82-7.03 28.1-9.45 28.1-12.5L28.1-12.5Q28.1-15.55 28.97-18 29.85-20.45 31.27-22.13 32.7-23.8 34.55-24.7 36.4-25.6 38.3-25.6L38.3-25.6Q40.35-25.6 41.65-24.93 42.95-24.25 44.1-23.1L44.1-23.1 43.8-26.7 43.8-34.8 52.4-34.8 52.4 0 45.4 0 44.8-2.3 44.6-2.3Q43.3-1 41.62-0.2 39.95 0.6 38.3 0.6ZM40.6-6.4L40.6-6.4Q41.6-6.4 42.35-6.78 43.1-7.15 43.8-8.2L43.8-8.2 43.8-17.4Q43.05-18.1 42.15-18.35 41.25-18.6 40.4-18.6L40.4-18.6Q39.05-18.6 37.97-17.25 36.9-15.9 36.9-12.6L36.9-12.6Q36.9-9.2 37.87-7.8 38.85-6.4 40.6-6.4ZM65.8 0.6L65.8 0.6Q63.75 0.6 62.27-0.13 60.8-0.85 59.84-2.18 58.9-3.5 58.45-5.38 58-7.25 58-9.6L58-9.6 58-25 66.59-25 66.59-10.7Q66.59-8.3 67.2-7.5 67.8-6.7 69.09-6.7L69.09-6.7Q70.3-6.7 71.07-7.2 71.84-7.7 72.7-8.9L72.7-8.9 72.7-25 81.3-25 81.3 0 74.3 0 73.7-3.3 73.5-3.3Q72-1.5 70.17-0.45 68.34 0.6 65.8 0.6ZM94.79 0.6L94.79 0.6Q92.39 0.6 89.72-0.35 87.04-1.3 85.09-2.9L85.09-2.9 88.89-8.2Q92.29-5.7 94.99-5.7L94.99-5.7Q96.34-5.7 96.92-6.08 97.49-6.45 97.49-7.2L97.49-7.2Q97.49-7.7 97.09-8.08 96.69-8.45 96.02-8.78 95.34-9.1 94.49-9.4 93.64-9.7 92.69-10.1L92.69-10.1Q91.59-10.55 90.47-11.18 89.34-11.8 88.44-12.7 87.54-13.6 86.97-14.78 86.39-15.95 86.39-17.5L86.39-17.5Q86.39-19.35 87.12-20.85 87.84-22.35 89.14-23.4 90.44-24.45 92.27-25.03 94.09-25.6 96.29-25.6L96.29-25.6Q99.39-25.6 101.62-24.58 103.84-23.55 105.49-22.3L105.49-22.3 101.69-17.2Q100.34-18.2 99.04-18.75 97.74-19.3 96.59-19.3L96.59-19.3Q94.39-19.3 94.39-17.9L94.39-17.9Q94.39-17.4 94.77-17.05 95.14-16.7 95.79-16.4 96.44-16.1 97.29-15.83 98.14-15.55 99.09-15.2L99.09-15.2Q100.19-14.8 101.34-14.2 102.49-13.6 103.42-12.73 104.34-11.85 104.92-10.63 105.49-9.4 105.49-7.7L105.49-7.7Q105.49-5.95 104.79-4.42 104.09-2.9 102.74-1.78 101.39-0.65 99.39-0.03 97.39 0.6 94.79 0.6ZM118.29 8.8L109.69 8.8 109.69-25 116.69-25 117.29-22.7 117.49-22.7Q118.89-24 120.64-24.8 122.39-25.6 124.29-25.6L124.29-25.6Q126.49-25.6 128.29-24.7 130.09-23.8 131.37-22.15 132.64-20.5 133.32-18.15 133.99-15.8 133.99-12.9L133.99-12.9Q133.99-9.65 133.12-7.15 132.24-4.65 130.79-2.93 129.34-1.2 127.47-0.3 125.59 0.6 123.59 0.6L123.59 0.6Q120.49 0.6 117.99-1.9L117.99-1.9 118.29 1.9 118.29 8.8ZM121.49-6.4L121.49-6.4Q122.99-6.4 124.09-7.8 125.19-9.2 125.19-12.8L125.19-12.8Q125.19-15.9 124.32-17.25 123.44-18.6 121.69-18.6L121.69-18.6Q120.69-18.6 119.92-18.2 119.14-17.8 118.29-16.8L118.29-16.8 118.29-7.6Q119.04-6.9 119.84-6.65 120.64-6.4 121.49-6.4ZM144.69 0.6L144.69 0.6Q142.94 0.6 141.54-0.03 140.14-0.65 139.16-1.7 138.19-2.75 137.69-4.15 137.19-5.55 137.19-7.1L137.19-7.1Q137.19-11 140.39-13.23 143.59-15.45 150.79-16.2L150.79-16.2Q150.49-18.8 147.29-18.8L147.29-18.8Q145.94-18.8 144.44-18.28 142.94-17.75 140.99-16.7L140.99-16.7 137.99-22.3Q140.64-23.9 143.34-24.75 146.04-25.6 148.99-25.6L148.99-25.6Q153.84-25.6 156.61-22.83 159.39-20.05 159.39-13.9L159.39-13.9 159.39 0 152.39 0 151.79-2.4 151.59-2.4Q150.09-1.05 148.41-0.23 146.74 0.6 144.69 0.6ZM147.69-6L147.69-6Q148.74-6 149.41-6.48 150.09-6.95 150.79-7.7L150.79-7.7 150.79-11.1Q147.69-10.65 146.54-9.75 145.39-8.85 145.39-7.8L145.39-7.8Q145.39-6 147.69-6ZM176.29 0.6L176.29 0.6Q173.64 0.6 171.34-0.28 169.04-1.15 167.34-2.83 165.64-4.5 164.66-6.95 163.69-9.4 163.69-12.5L163.69-12.5Q163.69-15.6 164.79-18.05 165.89-20.5 167.74-22.18 169.59-23.85 172.01-24.73 174.44-25.6 177.09-25.6L177.09-25.6Q179.34-25.6 181.14-24.9 182.94-24.2 184.39-23L184.39-23 180.39-17.5Q179.54-18.2 178.91-18.45 178.29-18.7 177.59-18.7L177.59-18.7Q175.19-18.7 173.84-17.03 172.49-15.35 172.49-12.5L172.49-12.5Q172.49-9.65 173.86-7.98 175.24-6.3 177.29-6.3L177.29-6.3Q178.34-6.3 179.36-6.75 180.39-7.2 181.29-7.9L181.29-7.9 184.59-2.3Q182.69-0.65 180.46-0.03 178.24 0.6 176.29 0.6ZM198.68 0.6L198.68 0.6Q195.93 0.6 193.58-0.28 191.23-1.15 189.51-2.83 187.78-4.5 186.78-6.95 185.78-9.4 185.78-12.5L185.78-12.5Q185.78-15.55 186.81-17.98 187.83-20.4 189.51-22.1 191.18-23.8 193.33-24.7 195.48-25.6 197.78-25.6L197.78-25.6Q200.53-25.6 202.58-24.65 204.63-23.7 205.98-22.05 207.33-20.4 208.01-18.2 208.68-16 208.68-13.5L208.68-13.5Q208.68-12.35 208.56-11.35 208.43-10.35 208.33-9.9L208.33-9.9 194.08-9.9Q194.68-7.65 196.23-6.78 197.78-5.9 199.88-5.9L199.88-5.9Q201.18-5.9 202.41-6.28 203.63-6.65 204.98-7.4L204.98-7.4 207.78-2.3Q205.73-0.85 203.26-0.13 200.78 0.6 198.68 0.6ZM193.98-15.5L193.98-15.5 201.38-15.5Q201.38-16.95 200.66-18.03 199.93-19.1 197.98-19.1L197.98-19.1Q196.53-19.1 195.46-18.25 194.38-17.4 193.98-15.5Z" opacity="1" transform="matrix(1,0,0,1,0,0)" fill="#45d979" class="wordmark-text-0" data-fill-palette-color="primary" id="text-0"></path></svg></g></svg></g><g transform="matrix(1,0,0,1,0,108.46819017781894)"><svg viewBox="0 0 395.52 25.9422805247225" height="25.9422805247225" width="395.52"><g transform="matrix(1,0,0,1,0,0)"><svg width="395.52" viewBox="-0.55 -35.75 545.01 35.75" height="25.9422805247225" data-palette-color="#45d979"><path d="M-0.55-2.15L4.3-2.15 4.3-34.95 29.5-34.95 29.5-28 12.1-28 12.1-20.8 27.75-20.8 27.75-14.15 12.1-14.15 12.1-6.9 30.05-6.9 30.05-2.15 34.9-2.15 34.9 0-0.55 0-0.55-2.15ZM60-2.15L71.8-2.15 71.8 0 32.15 0 32.15-2.15 37-2.15 37-34.95 49.35-34.95Q58.7-34.95 63.7-30.38 68.7-25.8 68.7-17.5L68.7-17.5Q68.7-6.3 60-2.15L60-2.15ZM49.75-6.9Q55.1-6.9 57.97-9.6 60.85-12.3 60.85-17.45 60.85-22.6 57.97-25.38 55.1-28.15 49.15-28.15L49.15-28.15 44.8-28.15 44.8-6.9 49.75-6.9ZM99.45-2.15L109.35-2.15 109.35 0 71.8 0 71.8-2.15 81.75-2.15Q75.6-6.25 75.6-15.4L75.6-15.4 75.6-34.95 83.4-34.95 83.4-15.65Q83.4-11.45 85.35-9.03 87.3-6.6 90.6-6.6 93.9-6.6 95.82-9.03 97.75-11.45 97.75-15.65L97.75-15.65 97.75-34.95 105.55-34.95 105.55-15.4Q105.55-6.25 99.45-2.15L99.45-2.15ZM139.14-2.15L146.14-2.15 146.14 0 109.34 0 109.34-2.15 120.09-2.15Q116.09-4.5 113.82-8.53 111.54-12.55 111.54-17.65L111.54-17.65Q111.54-25.35 116.87-30.55 122.19-35.75 129.89-35.75L129.89-35.75Q138.49-35.75 144.29-29.2L144.29-29.2 139.44-23.7Q135.74-28.3 130.24-28.3L130.24-28.3Q125.84-28.3 122.72-25.43 119.59-22.55 119.59-17.68 119.59-12.8 122.54-9.85 125.49-6.9 129.69-6.9L129.69-6.9Q135.44-6.9 139.09-11.45L139.09-11.45 144.09-6.3Q141.89-3.75 139.14-2.15L139.14-2.15ZM182.69-2.15L188.49-2.15 188.49 0 175.34 0 172.09-7.55 157.44-7.55 154.19 0 141.04 0 141.04-2.15 146.79-2.15 160.99-34.95 168.54-34.95 182.69-2.15ZM169.14-14.4L164.79-24.55 160.39-14.4 169.14-14.4ZM202.49-2.15L213.79-2.15 213.79 0 183.39 0 183.39-2.15 194.69-2.15 194.69-28.2 184.79-28.2 184.79-34.95 212.39-34.95 212.39-28.2 202.49-28.2 202.49-2.15ZM225.89-2.15L230.19-2.15 230.19 0 213.79 0 213.79-2.15 218.09-2.15 218.09-34.95 225.89-34.95 225.89-2.15ZM260.33-2.15L271.48-2.15 271.48 0 230.18 0 230.18-2.15 241.33-2.15Q237.23-4.5 234.86-8.6 232.48-12.7 232.48-17.7L232.48-17.7Q232.48-25.4 237.78-30.58 243.08-35.75 250.83-35.75 258.58-35.75 263.88-30.58 269.18-25.4 269.18-17.7L269.18-17.7Q269.18-12.7 266.78-8.6 264.38-4.5 260.33-2.15L260.33-2.15ZM261.23-17.68Q261.23-22.35 258.23-25.65 255.23-28.95 250.86-28.95 246.48-28.95 243.48-25.65 240.48-22.35 240.48-17.68 240.48-13 243.48-9.73 246.48-6.45 250.86-6.45 255.23-6.45 258.23-9.73 261.23-13 261.23-17.68ZM270.93-2.15L275.78-2.15 275.78-34.95 283.08-34.95 300.23-12.45 300.23-34.95 308.03-34.95 308.03-2.15 312.88-2.15 312.88 0 300.23 0 283.58-21.9 283.58 0 270.93 0 270.93-2.15ZM312.33-2.15L325.53-2.15 325.53 0 312.33 0 312.33-2.15ZM337.63-2.15L356.13-2.15 356.13 0 325.53 0 325.53-2.15 329.83-2.15 329.83-34.95 353.83-34.95 353.83-28.1 337.63-28.1 337.63-20.55 353.03-20.55 353.03-13.7 337.63-13.7 337.63-2.15ZM386.27-2.15L397.42-2.15 397.42 0 356.12 0 356.12-2.15 367.27-2.15Q363.17-4.5 360.8-8.6 358.42-12.7 358.42-17.7L358.42-17.7Q358.42-25.4 363.72-30.58 369.02-35.75 376.77-35.75 384.52-35.75 389.82-30.58 395.12-25.4 395.12-17.7L395.12-17.7Q395.12-12.7 392.72-8.6 390.32-4.5 386.27-2.15L386.27-2.15ZM387.17-17.68Q387.17-22.35 384.17-25.65 381.17-28.95 376.8-28.95 372.42-28.95 369.42-25.65 366.42-22.35 366.42-17.68 366.42-13 369.42-9.73 372.42-6.45 376.8-6.45 381.17-6.45 384.17-9.73 387.17-13 387.17-17.68ZM396.87-2.15L401.72-2.15 401.72-34.95 414.97-34.95Q423.12-34.95 426.6-32.2 430.07-29.45 430.07-23.35L430.07-23.35Q430.07-14.95 423.42-12.5L423.42-12.5 430.72-2.15 435.42-2.15 435.42 0 422.67 0 414.92-11.15 409.52-11.15 409.52 0 396.87 0 396.87-2.15ZM415.22-17.9Q419.22-17.9 420.67-19.2 422.12-20.5 422.12-23.33 422.12-26.15 420.62-27.2 419.12-28.25 415.37-28.25L415.37-28.25 409.52-28.25 409.52-17.9 415.22-17.9ZM433.77-2.15L446.97-2.15 446.97 0 433.77 0 433.77-2.15ZM483.52-2.15L489.32-2.15 489.32 0 476.17 0 472.92-7.55 458.27-7.55 455.02 0 441.87 0 441.87-2.15 447.62-2.15 461.82-34.95 469.37-34.95 483.52-2.15ZM469.97-14.4L465.62-24.55 461.22-14.4 469.97-14.4ZM511.21-2.15L516.06-2.15 516.06 0 483.66 0 483.66-2.15 488.51-2.15 488.51-34.95 496.31-34.95 496.31-6.95 511.21-6.95 511.21-2.15ZM539.61-2.15L544.46-2.15 544.46 0 512.06 0 512.06-2.15 516.91-2.15 516.91-34.95 524.71-34.95 524.71-6.95 539.61-6.95 539.61-2.15Z" opacity="1" transform="matrix(1,0,0,1,0,0)" fill="#45d979" class="slogan-text-1" data-fill-palette-color="secondary" id="text-1"></path></svg></g></svg></g></svg></g></svg></g></svg></g><defs></defs></svg><rect width="395.52" height="133.7417618930761" fill="none" stroke="none" visibility="hidden"></rect></g></svg></g></svg>